<svg width="32" height="32" viewBox="0 0 32 32" fill="none" xmlns="http://www.w3.org/2000/svg">
  <!-- Background -->
  <rect width="32" height="32" rx="6" fill="#3b82f6"/>
  
  <!-- QR Code Pattern -->
  <!-- Top row -->
  <rect x="4" y="4" width="3" height="3" fill="white"/>
  <rect x="9" y="4" width="3" height="3" fill="white"/>
  <rect x="14" y="4" width="3" height="3" fill="white"/>
  <rect x="19" y="4" width="3" height="3" fill="white"/>
  <rect x="25" y="4" width="3" height="3" fill="white"/>
  
  <!-- Second row -->
  <rect x="4" y="9" width="3" height="3" fill="white"/>
  <rect x="14" y="9" width="3" height="3" fill="white"/>
  <rect x="25" y="9" width="3" height="3" fill="white"/>
  
  <!-- Third row -->
  <rect x="4" y="14" width="3" height="3" fill="white"/>
  <rect x="9" y="14" width="3" height="3" fill="white"/>
  <rect x="19" y="14" width="3" height="3" fill="white"/>
  <rect x="25" y="14" width="3" height="3" fill="white"/>
  
  <!-- Fourth row -->
  <rect x="4" y="19" width="3" height="3" fill="white"/>
  <rect x="14" y="19" width="3" height="3" fill="white"/>
  <rect x="19" y="19" width="3" height="3" fill="white"/>
  
  <!-- Bottom row -->
  <rect x="4" y="25" width="3" height="3" fill="white"/>
  <rect x="9" y="25" width="3" height="3" fill="white"/>
  <rect x="14" y="25" width="3" height="3" fill="white"/>
  <rect x="19" y="25" width="3" height="3" fill="white"/>
  <rect x="25" y="25" width="3" height="3" fill="white"/>
</svg>